<?xml version="1.0" standalone="no"?><!DOCTYPE svg PUBLIC "-//W3C//DTD SVG 1.1//EN" "http://www.w3.org/Graphics/SVG/1.1/DTD/svg11.dtd"><svg t="1574493433078" class="icon" viewBox="0 0 1024 1024" version="1.1" xmlns="http://www.w3.org/2000/svg" p-id="2584" xmlns:xlink="http://www.w3.org/1999/xlink" width="200" height="200"><defs><style type="text/css"></style></defs><path d="M40.6016 40.6016a51.2 51.2 0 0 1 72.3968 0L511.232 438.784 909.4912 40.6016a51.2 51.2 0 0 1 72.3968 72.3968L583.68 511.232l398.2336 398.2592a51.2 51.2 0 0 1 2.9952 69.1456l-2.9952 3.2512a51.2 51.2 0 0 1-72.3968 0L511.232 583.68 112.9984 981.888a51.2 51.2 0 0 1-72.3968-72.3968L438.784 511.232 40.6016 112.9984a51.2 51.2 0 0 1-2.9952-69.1456z" p-id="2585"></path></svg>