<?xml version="1.0" standalone="no"?><!DOCTYPE svg PUBLIC "-//W3C//DTD SVG 1.1//EN" "http://www.w3.org/Graphics/SVG/1.1/DTD/svg11.dtd"><svg t="1574493414118" class="icon" viewBox="0 0 1024 1024" version="1.1" xmlns="http://www.w3.org/2000/svg" p-id="2467" xmlns:xlink="http://www.w3.org/1999/xlink" width="200" height="200"><defs><style type="text/css"></style></defs><path d="M416.00006 0.00064C186.368204-0.06336 0.12832 183.104526 0.00032 409.216384c0 226.047859 326.015796 571.903643 326.015796 571.903643 49.727969 57.087964 131.071918 57.343964 180.223888-0.256 0 0 325.759796-345.599784 325.759796-571.647643a406.207746 406.207746 0 0 0-121.919924-289.471819A419.071738 419.071738 0 0 0 416.00006 0.00064z m0 585.407634A192.44788 192.44788 0 0 1 238.208171 468.480347a187.327883 187.327883 0 0 1 41.791974-206.463871 194.559878 194.559878 0 0 1 209.727869-40.959974A189.439882 189.439882 0 0 1 608.38394 396.160392C608.31994 500.736327 522.239994 585.408274 416.00006 585.408274z" p-id="2468"></path></svg>